<mxfile host="app.diagrams.net" modified="2022-09-17T00:10:05.982Z" agent="5.0 (Windows NT 10.0; Win64; x64) AppleWebKit/537.36 (KHTML, like Gecko) Chrome/105.0.0.0 Safari/537.36" etag="2BDmpQF5FhROQGHXpkMc" version="20.3.2" type="github">
  <diagram id="lG0qLmFBsMhQ5SfkYtuB" name="PÃ¡gina-1">
    <mxGraphModel dx="868" dy="482" grid="1" gridSize="10" guides="1" tooltips="1" connect="1" arrows="1" fold="1" page="1" pageScale="1" pageWidth="827" pageHeight="1169" math="0" shadow="0">
      <root>
        <mxCell id="0" />
        <mxCell id="1" parent="0" />
        <mxCell id="vnMpCyOTpke9VnWY7G75-46" style="edgeStyle=none;sketch=0;orthogonalLoop=1;jettySize=auto;html=1;exitX=1;exitY=0.5;exitDx=0;exitDy=0;entryX=0;entryY=0.5;entryDx=0;entryDy=0;shadow=0;strokeColor=default;startArrow=none;startFill=0;endArrow=none;endFill=0;" edge="1" parent="1" source="vnMpCyOTpke9VnWY7G75-1" target="vnMpCyOTpke9VnWY7G75-13">
          <mxGeometry relative="1" as="geometry" />
        </mxCell>
        <mxCell id="vnMpCyOTpke9VnWY7G75-1" value="Estacionamento" style="rounded=0;whiteSpace=wrap;html=1;strokeColor=default;strokeWidth=2;" vertex="1" parent="1">
          <mxGeometry x="294" y="117.5" width="120" height="60" as="geometry" />
        </mxCell>
        <mxCell id="vnMpCyOTpke9VnWY7G75-13" value="Oferece" style="rhombus;whiteSpace=wrap;html=1;strokeColor=default;strokeWidth=2;" vertex="1" parent="1">
          <mxGeometry x="480" y="125" width="140" height="45" as="geometry" />
        </mxCell>
        <mxCell id="vnMpCyOTpke9VnWY7G75-20" style="edgeStyle=none;sketch=0;orthogonalLoop=1;jettySize=auto;html=1;exitX=1;exitY=0.75;exitDx=0;exitDy=0;entryX=0;entryY=0.5;entryDx=0;entryDy=0;shadow=0;strokeColor=default;startArrow=none;startFill=0;endArrow=none;endFill=0;" edge="1" parent="1" source="vnMpCyOTpke9VnWY7G75-14" target="vnMpCyOTpke9VnWY7G75-17">
          <mxGeometry relative="1" as="geometry" />
        </mxCell>
        <mxCell id="vnMpCyOTpke9VnWY7G75-24" style="edgeStyle=none;sketch=0;orthogonalLoop=1;jettySize=auto;html=1;exitX=1;exitY=1;exitDx=0;exitDy=0;shadow=0;strokeColor=default;startArrow=none;startFill=0;endArrow=none;endFill=0;" edge="1" parent="1" source="vnMpCyOTpke9VnWY7G75-14" target="vnMpCyOTpke9VnWY7G75-22">
          <mxGeometry relative="1" as="geometry" />
        </mxCell>
        <mxCell id="vnMpCyOTpke9VnWY7G75-47" style="edgeStyle=none;sketch=0;orthogonalLoop=1;jettySize=auto;html=1;exitX=0.5;exitY=0;exitDx=0;exitDy=0;entryX=0.5;entryY=1;entryDx=0;entryDy=0;shadow=0;strokeColor=default;startArrow=none;startFill=0;endArrow=none;endFill=0;" edge="1" parent="1" source="vnMpCyOTpke9VnWY7G75-14" target="vnMpCyOTpke9VnWY7G75-13">
          <mxGeometry relative="1" as="geometry" />
        </mxCell>
        <mxCell id="vnMpCyOTpke9VnWY7G75-52" style="edgeStyle=none;sketch=0;orthogonalLoop=1;jettySize=auto;html=1;exitX=0.5;exitY=1;exitDx=0;exitDy=0;entryX=0.5;entryY=0;entryDx=0;entryDy=0;shadow=0;strokeColor=default;startArrow=none;startFill=0;endArrow=none;endFill=0;" edge="1" parent="1" source="vnMpCyOTpke9VnWY7G75-14" target="vnMpCyOTpke9VnWY7G75-15">
          <mxGeometry relative="1" as="geometry" />
        </mxCell>
        <mxCell id="vnMpCyOTpke9VnWY7G75-14" value="vagas" style="rounded=0;whiteSpace=wrap;html=1;strokeColor=default;strokeWidth=2;" vertex="1" parent="1">
          <mxGeometry x="480" y="210" width="120" height="60" as="geometry" />
        </mxCell>
        <mxCell id="vnMpCyOTpke9VnWY7G75-39" style="edgeStyle=none;sketch=0;orthogonalLoop=1;jettySize=auto;html=1;exitX=0.5;exitY=1;exitDx=0;exitDy=0;entryX=0.5;entryY=0;entryDx=0;entryDy=0;shadow=0;strokeColor=default;startArrow=none;startFill=0;endArrow=none;endFill=0;" edge="1" parent="1" source="vnMpCyOTpke9VnWY7G75-15" target="vnMpCyOTpke9VnWY7G75-25">
          <mxGeometry relative="1" as="geometry" />
        </mxCell>
        <mxCell id="vnMpCyOTpke9VnWY7G75-15" value="Frequenta" style="rhombus;whiteSpace=wrap;html=1;strokeColor=default;strokeWidth=2;" vertex="1" parent="1">
          <mxGeometry x="470" y="300" width="140" height="50" as="geometry" />
        </mxCell>
        <mxCell id="vnMpCyOTpke9VnWY7G75-17" value="" style="ellipse;whiteSpace=wrap;html=1;strokeColor=default;strokeWidth=2;" vertex="1" parent="1">
          <mxGeometry x="650" y="190" width="30" height="20" as="geometry" />
        </mxCell>
        <mxCell id="vnMpCyOTpke9VnWY7G75-18" value="&lt;i&gt;&lt;u&gt;status&lt;/u&gt;&lt;/i&gt;" style="text;html=1;align=center;verticalAlign=middle;resizable=0;points=[];autosize=1;strokeColor=none;fillColor=none;" vertex="1" parent="1">
          <mxGeometry x="670" y="170" width="60" height="30" as="geometry" />
        </mxCell>
        <mxCell id="vnMpCyOTpke9VnWY7G75-22" value="" style="ellipse;whiteSpace=wrap;html=1;strokeColor=default;strokeWidth=2;" vertex="1" parent="1">
          <mxGeometry x="650" y="230" width="30" height="20" as="geometry" />
        </mxCell>
        <mxCell id="vnMpCyOTpke9VnWY7G75-23" value="&lt;i&gt;&lt;u&gt;numero&lt;/u&gt;&lt;/i&gt;" style="text;html=1;align=center;verticalAlign=middle;resizable=0;points=[];autosize=1;strokeColor=none;fillColor=none;" vertex="1" parent="1">
          <mxGeometry x="670" y="210" width="60" height="30" as="geometry" />
        </mxCell>
        <mxCell id="vnMpCyOTpke9VnWY7G75-40" style="edgeStyle=none;sketch=0;orthogonalLoop=1;jettySize=auto;html=1;exitX=1;exitY=0.5;exitDx=0;exitDy=0;entryX=0;entryY=0.5;entryDx=0;entryDy=0;shadow=0;strokeColor=default;startArrow=none;startFill=0;endArrow=none;endFill=0;" edge="1" parent="1" source="vnMpCyOTpke9VnWY7G75-25" target="vnMpCyOTpke9VnWY7G75-33">
          <mxGeometry relative="1" as="geometry" />
        </mxCell>
        <mxCell id="vnMpCyOTpke9VnWY7G75-42" style="edgeStyle=none;sketch=0;orthogonalLoop=1;jettySize=auto;html=1;exitX=0.5;exitY=1;exitDx=0;exitDy=0;entryX=0;entryY=0;entryDx=45;entryDy=0;entryPerimeter=0;shadow=0;strokeColor=default;startArrow=none;startFill=0;endArrow=none;endFill=0;" edge="1" parent="1" source="vnMpCyOTpke9VnWY7G75-25" target="vnMpCyOTpke9VnWY7G75-29">
          <mxGeometry relative="1" as="geometry" />
        </mxCell>
        <mxCell id="vnMpCyOTpke9VnWY7G75-25" value="clientes" style="rounded=0;whiteSpace=wrap;html=1;strokeColor=default;strokeWidth=2;" vertex="1" parent="1">
          <mxGeometry x="480" y="380" width="120" height="60" as="geometry" />
        </mxCell>
        <mxCell id="vnMpCyOTpke9VnWY7G75-29" value="" style="verticalLabelPosition=bottom;verticalAlign=top;html=1;shape=mxgraph.basic.acute_triangle;dx=0.5;strokeColor=default;strokeWidth=2;" vertex="1" parent="1">
          <mxGeometry x="495" y="460" width="90" height="70" as="geometry" />
        </mxCell>
        <mxCell id="vnMpCyOTpke9VnWY7G75-44" style="edgeStyle=none;sketch=0;orthogonalLoop=1;jettySize=auto;html=1;exitX=0.5;exitY=0;exitDx=0;exitDy=0;entryX=0;entryY=1;entryDx=0;entryDy=0;entryPerimeter=0;shadow=0;strokeColor=default;startArrow=none;startFill=0;endArrow=none;endFill=0;" edge="1" parent="1" source="vnMpCyOTpke9VnWY7G75-30" target="vnMpCyOTpke9VnWY7G75-29">
          <mxGeometry relative="1" as="geometry" />
        </mxCell>
        <mxCell id="vnMpCyOTpke9VnWY7G75-62" style="edgeStyle=none;sketch=0;orthogonalLoop=1;jettySize=auto;html=1;exitX=0.25;exitY=1;exitDx=0;exitDy=0;entryX=0.5;entryY=0;entryDx=0;entryDy=0;shadow=0;strokeColor=default;startArrow=none;startFill=0;endArrow=none;endFill=0;" edge="1" parent="1" source="vnMpCyOTpke9VnWY7G75-30" target="vnMpCyOTpke9VnWY7G75-60">
          <mxGeometry relative="1" as="geometry" />
        </mxCell>
        <mxCell id="vnMpCyOTpke9VnWY7G75-30" value="mensalista" style="rounded=0;whiteSpace=wrap;html=1;strokeColor=default;strokeWidth=2;" vertex="1" parent="1">
          <mxGeometry x="360" y="580" width="120" height="60" as="geometry" />
        </mxCell>
        <mxCell id="vnMpCyOTpke9VnWY7G75-43" style="edgeStyle=none;sketch=0;orthogonalLoop=1;jettySize=auto;html=1;exitX=0.5;exitY=0;exitDx=0;exitDy=0;entryX=1;entryY=1;entryDx=0;entryDy=0;entryPerimeter=0;shadow=0;strokeColor=default;startArrow=none;startFill=0;endArrow=none;endFill=0;" edge="1" parent="1" source="vnMpCyOTpke9VnWY7G75-31" target="vnMpCyOTpke9VnWY7G75-29">
          <mxGeometry relative="1" as="geometry" />
        </mxCell>
        <mxCell id="vnMpCyOTpke9VnWY7G75-31" value="avulso" style="rounded=0;whiteSpace=wrap;html=1;strokeColor=default;strokeWidth=2;" vertex="1" parent="1">
          <mxGeometry x="570" y="585" width="120" height="60" as="geometry" />
        </mxCell>
        <mxCell id="vnMpCyOTpke9VnWY7G75-48" style="edgeStyle=none;sketch=0;orthogonalLoop=1;jettySize=auto;html=1;exitX=0.5;exitY=1;exitDx=0;exitDy=0;entryX=0.5;entryY=0;entryDx=0;entryDy=0;shadow=0;strokeColor=default;startArrow=none;startFill=0;endArrow=none;endFill=0;" edge="1" parent="1" source="vnMpCyOTpke9VnWY7G75-33" target="vnMpCyOTpke9VnWY7G75-34">
          <mxGeometry relative="1" as="geometry" />
        </mxCell>
        <mxCell id="vnMpCyOTpke9VnWY7G75-33" value="possui" style="rhombus;whiteSpace=wrap;html=1;strokeColor=default;strokeWidth=2;" vertex="1" parent="1">
          <mxGeometry x="650" y="385" width="140" height="50" as="geometry" />
        </mxCell>
        <mxCell id="vnMpCyOTpke9VnWY7G75-49" style="edgeStyle=none;sketch=0;orthogonalLoop=1;jettySize=auto;html=1;exitX=1;exitY=0.25;exitDx=0;exitDy=0;shadow=0;strokeColor=default;startArrow=none;startFill=0;endArrow=none;endFill=0;" edge="1" parent="1" source="vnMpCyOTpke9VnWY7G75-34" target="vnMpCyOTpke9VnWY7G75-35">
          <mxGeometry relative="1" as="geometry" />
        </mxCell>
        <mxCell id="vnMpCyOTpke9VnWY7G75-34" value="veiculo" style="rounded=0;whiteSpace=wrap;html=1;strokeColor=default;strokeWidth=2;" vertex="1" parent="1">
          <mxGeometry x="660" y="460" width="120" height="60" as="geometry" />
        </mxCell>
        <mxCell id="vnMpCyOTpke9VnWY7G75-35" value="" style="ellipse;whiteSpace=wrap;html=1;strokeColor=default;strokeWidth=2;" vertex="1" parent="1">
          <mxGeometry x="797" y="440" width="30" height="20" as="geometry" />
        </mxCell>
        <mxCell id="vnMpCyOTpke9VnWY7G75-53" value="&lt;u&gt;&lt;i&gt;placa&lt;/i&gt;&lt;/u&gt;" style="text;html=1;align=center;verticalAlign=middle;resizable=0;points=[];autosize=1;strokeColor=none;fillColor=none;" vertex="1" parent="1">
          <mxGeometry x="820" y="420" width="50" height="30" as="geometry" />
        </mxCell>
        <mxCell id="vnMpCyOTpke9VnWY7G75-58" style="edgeStyle=none;sketch=0;orthogonalLoop=1;jettySize=auto;html=1;exitX=0;exitY=0.5;exitDx=0;exitDy=0;entryX=1;entryY=0.5;entryDx=0;entryDy=0;shadow=0;strokeColor=default;startArrow=none;startFill=0;endArrow=none;endFill=0;" edge="1" parent="1" source="vnMpCyOTpke9VnWY7G75-54" target="vnMpCyOTpke9VnWY7G75-34">
          <mxGeometry relative="1" as="geometry" />
        </mxCell>
        <mxCell id="vnMpCyOTpke9VnWY7G75-54" value="" style="ellipse;whiteSpace=wrap;html=1;strokeColor=default;strokeWidth=2;" vertex="1" parent="1">
          <mxGeometry x="797" y="470" width="30" height="20" as="geometry" />
        </mxCell>
        <mxCell id="vnMpCyOTpke9VnWY7G75-59" style="edgeStyle=none;sketch=0;orthogonalLoop=1;jettySize=auto;html=1;exitX=0;exitY=0.5;exitDx=0;exitDy=0;entryX=1;entryY=0.75;entryDx=0;entryDy=0;shadow=0;strokeColor=default;startArrow=none;startFill=0;endArrow=none;endFill=0;" edge="1" parent="1" source="vnMpCyOTpke9VnWY7G75-55" target="vnMpCyOTpke9VnWY7G75-34">
          <mxGeometry relative="1" as="geometry" />
        </mxCell>
        <mxCell id="vnMpCyOTpke9VnWY7G75-55" value="" style="ellipse;whiteSpace=wrap;html=1;strokeColor=default;strokeWidth=2;" vertex="1" parent="1">
          <mxGeometry x="797" y="500" width="30" height="20" as="geometry" />
        </mxCell>
        <mxCell id="vnMpCyOTpke9VnWY7G75-56" value="&lt;u&gt;&lt;i&gt;marca&amp;nbsp;&lt;/i&gt;&lt;/u&gt;" style="text;html=1;align=center;verticalAlign=middle;resizable=0;points=[];autosize=1;strokeColor=none;fillColor=none;" vertex="1" parent="1">
          <mxGeometry x="820" y="450" width="60" height="30" as="geometry" />
        </mxCell>
        <mxCell id="vnMpCyOTpke9VnWY7G75-57" value="&lt;u&gt;&lt;i&gt;cor&lt;/i&gt;&lt;/u&gt;" style="text;html=1;align=center;verticalAlign=middle;resizable=0;points=[];autosize=1;strokeColor=none;fillColor=none;" vertex="1" parent="1">
          <mxGeometry x="820" y="480" width="40" height="30" as="geometry" />
        </mxCell>
        <mxCell id="vnMpCyOTpke9VnWY7G75-60" value="" style="ellipse;whiteSpace=wrap;html=1;strokeColor=default;strokeWidth=2;" vertex="1" parent="1">
          <mxGeometry x="339" y="670" width="30" height="20" as="geometry" />
        </mxCell>
        <mxCell id="vnMpCyOTpke9VnWY7G75-61" value="&lt;i&gt;&lt;u&gt;dados&lt;/u&gt;&lt;/i&gt;" style="text;html=1;align=center;verticalAlign=middle;resizable=0;points=[];autosize=1;strokeColor=none;fillColor=none;" vertex="1" parent="1">
          <mxGeometry x="290" y="655" width="60" height="30" as="geometry" />
        </mxCell>
        <mxCell id="vnMpCyOTpke9VnWY7G75-68" style="edgeStyle=none;sketch=0;orthogonalLoop=1;jettySize=auto;html=1;exitX=0;exitY=0.5;exitDx=0;exitDy=0;shadow=0;strokeColor=default;startArrow=none;startFill=0;endArrow=none;endFill=0;" edge="1" parent="1" source="vnMpCyOTpke9VnWY7G75-63" target="vnMpCyOTpke9VnWY7G75-15">
          <mxGeometry relative="1" as="geometry" />
        </mxCell>
        <mxCell id="vnMpCyOTpke9VnWY7G75-63" value="" style="ellipse;whiteSpace=wrap;html=1;strokeColor=default;strokeWidth=2;" vertex="1" parent="1">
          <mxGeometry x="615" y="290" width="30" height="20" as="geometry" />
        </mxCell>
        <mxCell id="vnMpCyOTpke9VnWY7G75-64" value="&lt;i&gt;&lt;u&gt;entrada&lt;/u&gt;&lt;/i&gt;" style="text;html=1;align=center;verticalAlign=middle;resizable=0;points=[];autosize=1;strokeColor=none;fillColor=none;" vertex="1" parent="1">
          <mxGeometry x="635" y="270" width="60" height="30" as="geometry" />
        </mxCell>
        <mxCell id="vnMpCyOTpke9VnWY7G75-67" style="edgeStyle=none;sketch=0;orthogonalLoop=1;jettySize=auto;html=1;exitX=0.5;exitY=0;exitDx=0;exitDy=0;shadow=0;strokeColor=default;startArrow=none;startFill=0;endArrow=none;endFill=0;" edge="1" parent="1" source="vnMpCyOTpke9VnWY7G75-65" target="vnMpCyOTpke9VnWY7G75-15">
          <mxGeometry relative="1" as="geometry" />
        </mxCell>
        <mxCell id="vnMpCyOTpke9VnWY7G75-65" value="" style="ellipse;whiteSpace=wrap;html=1;strokeColor=default;strokeWidth=2;" vertex="1" parent="1">
          <mxGeometry x="615" y="340" width="30" height="20" as="geometry" />
        </mxCell>
        <mxCell id="vnMpCyOTpke9VnWY7G75-66" value="&lt;i&gt;&lt;u&gt;saida&lt;/u&gt;&lt;/i&gt;" style="text;html=1;align=center;verticalAlign=middle;resizable=0;points=[];autosize=1;strokeColor=none;fillColor=none;" vertex="1" parent="1">
          <mxGeometry x="635" y="320" width="50" height="30" as="geometry" />
        </mxCell>
      </root>
    </mxGraphModel>
  </diagram>
</mxfile>
